<?xml version="1.0" standalone="no"?>
<!DOCTYPE svg PUBLIC "-//W3C//DTD SVG 20010904//EN"
 "http://www.w3.org/TR/2001/REC-SVG-20010904/DTD/svg10.dtd">
<svg version="1.0" xmlns="http://www.w3.org/2000/svg"
 width="700.000000pt" height="700.000000pt" viewBox="0 0 700.000000 700.000000"
 preserveAspectRatio="xMidYMid meet">
<metadata>
Created by potrace 1.11, written by Peter Selinger 2001-2013
</metadata>
<g transform="translate(0.000000,700.000000) scale(0.100000,-0.100000)"
fill="#000000" stroke="none">
<path d="M0 3500 l0 -3500 3500 0 3500 0 0 3500 0 3500 -3500 0 -3500 0 0
-3500z m1450 1244 c55 -22 100 -85 100 -139 0 -101 -69 -198 -163 -229 -77
-26 -116 -19 -188 30 -34 23 -37 30 -43 87 -8 76 10 137 57 185 70 73 158 98
237 66z m3730 -300 c56 -23 100 -85 100 -142 0 -111 -56 -194 -153 -226 -64
-22 -95 -20 -147 7 -161 80 -111 310 80 368 41 12 77 10 120 -7z m-3694 -266
c-3 -18 -51 -355 -106 -748 -55 -393 -107 -742 -115 -775 -54 -235 -162 -355
-346 -384 -75 -13 -248 -14 -266 -3 -10 6 -6 42 16 156 16 81 31 150 33 152 3
2 20 -1 39 -6 65 -19 95 -13 127 26 16 19 34 52 40 72 6 20 56 361 112 757 55
396 102 735 105 753 l6 32 181 0 180 0 -6 -32z m2905 -242 c83 -15 143 -41
175 -78 12 -12 33 -60 48 -106 37 -117 35 -212 -14 -582 -22 -168 -43 -324
-46 -347 l-5 -43 -176 0 -175 0 5 28 c3 15 25 162 48 327 49 348 48 394 -4
452 -28 30 -40 35 -95 40 -75 7 -139 -14 -176 -58 -45 -53 -63 -127 -105 -429
-23 -162 -44 -307 -47 -322 l-6 -28 -170 0 -170 0 6 28 c3 15 37 254 76 532
38 278 72 520 75 538 l6 32 165 0 166 0 -7 -42 c-3 -24 -9 -56 -12 -73 -5 -29
-4 -29 48 22 62 60 142 100 225 112 82 12 80 12 165 -3z m1640 4 c160 -30 280
-147 323 -316 18 -71 21 -177 6 -221 -11 -30 -11 -30 -56 -20 -79 18 -192 -29
-235 -100 l-21 -33 -259 0 -259 0 6 -27 c31 -134 123 -202 255 -190 68 6 119
31 186 91 l51 46 7 -41 c13 -76 87 -131 190 -141 30 -3 30 -3 -30 -51 -168
-133 -377 -190 -572 -158 -158 27 -304 134 -372 272 -40 82 -51 156 -40 279
14 168 74 295 195 410 166 158 419 239 625 200z m-2467 -10 c5 -5 -24 -214
-40 -291 l-5 -26 -52 14 c-123 34 -272 -7 -343 -93 -61 -75 -81 -156 -124
-504 -11 -91 -23 -182 -26 -202 l-6 -38 -58 0 c-56 0 -58 1 -64 31 -15 79 -86
138 -163 139 -18 0 -33 1 -33 3 0 2 18 131 40 288 34 240 90 648 90 657 0 1
79 2 175 2 l176 0 -6 -32 c-3 -18 -9 -55 -14 -83 -5 -27 -8 -51 -6 -53 1 -2
21 20 43 48 68 85 117 117 227 144 26 6 182 3 189 -4z m-1647 -37 c-3 -16 -25
-163 -48 -328 -49 -348 -48 -394 4 -452 28 -30 40 -35 95 -40 113 -10 180 32
220 140 12 30 41 192 68 375 l48 322 168 0 c92 0 168 -1 168 -3 0 -2 -9 -69
-21 -151 -14 -106 -17 -151 -9 -161 14 -17 -84 -702 -104 -724 -8 -9 -19 -28
-25 -44 l-11 -27 -151 0 -151 0 7 43 c3 23 9 55 12 71 5 28 4 28 -57 -23 -76
-64 -121 -87 -207 -107 -85 -20 -214 -13 -277 14 -63 28 -120 84 -147 145 -18
41 -24 75 -27 162 -3 92 4 163 42 435 26 179 49 337 52 353 l6 27 175 0 175 0
-5 -27z m3283 14 c0 -7 -150 -1055 -155 -1084 l-6 -33 -174 0 c-96 0 -175 1
-175 3 0 7 150 1055 155 1085 l6 32 174 0 c96 0 175 -1 175 -3z"/>
<path d="M5774 3681 c-80 -20 -152 -84 -179 -161 l-14 -40 229 0 230 0 0 34
c0 125 -122 201 -266 167z"/>
</g>
</svg>
